<?xml version="1.0" encoding="UTF-8" standalone="no"?>
<svg
   xmlns:dc="http://purl.org/dc/elements/1.1/"
   xmlns:cc="http://creativecommons.org/ns#"
   xmlns:rdf="http://www.w3.org/1999/02/22-rdf-syntax-ns#"
   xmlns:svg="http://www.w3.org/2000/svg"
   xmlns="http://www.w3.org/2000/svg"
   xmlns:xlink="http://www.w3.org/1999/xlink"
   xmlns:sodipodi="http://sodipodi.sourceforge.net/DTD/sodipodi-0.dtd"
   xmlns:inkscape="http://www.inkscape.org/namespaces/inkscape"
   width="1024"
   height="1024"
   viewBox="0 0 1024 1024"
   version="1.1"
   id="svg8"
   sodipodi:docname="BitCaml.svg"
   inkscape:version="0.92.3 (2405546, 2018-03-11)">
  <metadata
     id="metadata14">
    <rdf:RDF>
      <cc:Work
         rdf:about="">
        <dc:format>image/svg+xml</dc:format>
        <dc:type
           rdf:resource="http://purl.org/dc/dcmitype/StillImage" />
        <dc:title></dc:title>
      </cc:Work>
    </rdf:RDF>
  </metadata>
  <defs
     id="defs12">
    <linearGradient
       id="linearGradient841"
       inkscape:collect="always">
      <stop
         id="stop837"
         offset="0"
         style="stop-color:#fed282;stop-opacity:1" />
      <stop
         id="stop839"
         offset="1"
         style="stop-color:#f7931a;stop-opacity:1" />
    </linearGradient>
    <linearGradient
       inkscape:collect="always"
       id="linearGradient4572">
      <stop
         style="stop-color:#fec459;stop-opacity:1"
         offset="0"
         id="stop4568" />
      <stop
         style="stop-color:#f7931a;stop-opacity:1"
         offset="1"
         id="stop4570" />
    </linearGradient>
    <radialGradient
       inkscape:collect="always"
       xlink:href="#linearGradient4572"
       id="radialGradient4574"
       cx="512"
       cy="512"
       fx="512"
       fy="512"
       r="266.4805"
       gradientUnits="userSpaceOnUse" />
    <radialGradient
       inkscape:collect="always"
       xlink:href="#linearGradient841"
       id="radialGradient4652"
       gradientUnits="userSpaceOnUse"
       cx="512"
       cy="512"
       fx="512"
       fy="512"
       r="266.4805"
       gradientTransform="translate(0,-0.04690037)" />
    <radialGradient
       inkscape:collect="always"
       xlink:href="#linearGradient841"
       id="radialGradient857"
       gradientUnits="userSpaceOnUse"
       gradientTransform="matrix(1.7754679,0,0,1.7754679,-397.03955,-397.12283)"
       cx="512"
       cy="512"
       fx="512"
       fy="512"
       r="266.4805" />
  </defs>
  <sodipodi:namedview
     pagecolor="#ffffff"
     bordercolor="#666666"
     borderopacity="1"
     objecttolerance="10"
     gridtolerance="10"
     guidetolerance="10"
     inkscape:pageopacity="0"
     inkscape:pageshadow="2"
     inkscape:window-width="1920"
     inkscape:window-height="1017"
     id="namedview10"
     showgrid="false"
     inkscape:zoom="0.32593203"
     inkscape:cx="304.29491"
     inkscape:cy="825.32681"
     inkscape:window-x="-8"
     inkscape:window-y="-8"
     inkscape:window-maximized="1"
     inkscape:current-layer="svg8" />
  <g
     id="g904"
     transform="matrix(0.96374205,0,0,0.96374205,18.56407,18.644333)">
    <circle
       r="473.12756"
       cy="511.91672"
       cx="512"
       id="path4526"
       style="fill:url(#radialGradient857);fill-opacity:1;stroke:none;stroke-width:3.29855466;stroke-linecap:round;stroke-linejoin:round" />
  </g>
  <g
     id="g4640"
     transform="matrix(1.7110931,0,0,1.7110931,-363.87161,-364.3491)">
    <path
       style="fill:#3f2406;fill-rule:evenodd;stroke:none"
       inkscape:connector-curvature="0"
       id="path4"
       d="m 642.378,330.414 c -4.222,1.869 -6.378,5.239 -6.378,9.971 0,4.158 3.789,11.838 6.624,13.424 1.436,0.804 1.423,1.2 -0.144,4.231 -0.951,1.838 -2.798,6.486 -4.105,10.327 -2.852,8.386 -3.171,22.849 -0.875,39.633 2.515,18.383 1.669,28.051 -3.089,35.289 -3.426,5.211 -7.855,7.703 -13.701,7.707 -6.501,0.005 -11.016,-2.464 -24.788,-13.558 -16.96,-13.661 -28.038,-25.765 -39.932,-43.632 -11.361,-17.067 -20.294,-26.971 -29.99,-33.253 -12.897,-8.356 -23.213,-11.051 -39.469,-10.31 -12.002,0.548 -21.72,3.175 -30.992,8.38 -6.589,3.698 -18.566,15.185 -23.17,22.221 -23.174,35.418 -25.574,37.687 -54.67,51.681 -21.816,10.494 -35.143,25.75 -40.598,46.475 -0.651,2.475 -1.537,15.75 -1.968,29.5 -0.707,22.561 -0.988,25.39 -2.882,29 -3.124,5.955 -8.393,10.802 -16.209,14.909 -7.954,4.179 -10.268,6.775 -9.381,10.525 1.703,7.197 7.481,7.945 18.318,2.371 8.812,-4.533 15.321,-10.139 19.478,-16.775 6.278,-10.02 6.648,-11.907 7.549,-38.53 0.458,-13.504 1.367,-26.294 2.027,-28.497 0.678,-2.263 3.042,-5.841 5.451,-8.25 4.754,-4.754 7.106,-5.524 6.118,-2.003 -3.319,11.834 -3.149,39.407 0.371,60.25 5.224,30.93 -0.054,44.724 -23.338,61 -5.179,3.62 -9.044,7.104 -9.744,8.783 -1.248,2.991 -0.946,8.797 1.625,31.217 6.058,52.834 7.406,64.826 7.986,71 1.014,10.797 2.325,15.493 5.419,19.405 1.563,1.977 3.009,4.467 3.212,5.533 0.806,4.216 35.727,23.951 56.743,32.068 17.066,6.59 41.557,12.647 63.124,15.609 12.516,1.72 47.689,1.744 61,0.043 41.668,-5.325 84.283,-21.327 118.176,-44.376 11.482,-7.808 11.401,-7.689 9.01,-13.095 -2.668,-6.03 -8.332,-12.065 -13.687,-14.582 -2.443,-1.149 -5.18,-3.215 -6.082,-4.591 -2.865,-4.373 -12.859,-47.263 -19.926,-85.514 -0.762,-4.125 -2.561,-13.575 -3.998,-21 C 611.701,573.409 607,545.985 607,543.454 c 0,-1.654 1.053,-2.584 4.347,-3.842 6.383,-2.438 25.407,-13.499 33.372,-19.404 13.012,-9.646 25.308,-23.539 31.379,-35.455 7.861,-15.429 8.958,-21 9.895,-50.253 0.44,-13.75 1.14,-26.518 1.553,-28.372 0.604,-2.705 1.586,-3.741 4.961,-5.234 4.501,-1.991 10.736,-8.15 14.853,-14.672 2.494,-3.951 6.343,-7.245 10.022,-8.579 1.259,-0.456 3.524,0.371 6.838,2.498 4.163,2.672 5.886,3.171 10.783,3.125 3.205,-0.03 7.418,-0.58 9.362,-1.221 3.38,-1.116 9.635,-7.026 9.635,-9.105 0,-0.544 1.125,-1.417 2.5,-1.94 1.375,-0.523 2.5,-1.543 2.5,-2.268 0,-0.725 -2.812,-6.236 -6.25,-12.248 -4.683,-8.189 -7.312,-11.672 -10.485,-13.886 l -4.235,-2.956 -24.265,-0.855 c -13.346,-0.47 -26.971,-1.099 -30.278,-1.398 -5.38,-0.486 -11.488,0.436 -21.237,3.205 -1.383,0.393 -2.25,0.204 -2.25,-0.491 0,-2.204 -4.536,-8.063 -7,-9.041 -4.681,-1.859 -7.496,-2.031 -10.622,-0.648 M 687.2,349.2 c -1.819,1.819 -1.439,5.274 0.804,7.304 1.656,1.498 2.438,1.616 4.5,0.676 4.461,-2.032 2.901,-9.18 -2.004,-9.18 -1.155,0 -2.64,0.54 -3.3,1.2 m -220.459,44.789 c -2.255,1.773 -2.567,2.847 -2.888,9.92 -0.199,4.363 -0.702,8.273 -1.119,8.69 -0.417,0.417 -5.067,0.79 -10.334,0.83 -8.814,0.065 -9.729,0.259 -11.488,2.432 -2.16,2.667 -2.447,6.86 -0.63,9.226 2.189,2.851 5.478,3.913 12.117,3.913 5.433,0 6.705,0.325 7.566,1.934 1.336,2.496 1.389,50.005 0.06,53.501 -0.929,2.442 -1.34,2.565 -8.546,2.565 -6.793,0 -7.833,0.263 -10.136,2.566 -2.081,2.081 -2.446,3.168 -1.93,5.747 1.181,5.909 3.595,7.215 12.875,6.969 4.516,-0.121 8.855,0.18 9.64,0.669 0.978,0.607 1.51,3.157 1.689,8.088 0.212,5.856 0.678,7.646 2.496,9.581 2.714,2.89 6.798,3.082 10.026,0.471 2.047,-1.654 2.428,-3.019 2.861,-10.25 l 0.5,-8.341 3.708,-0.308 c 6.734,-0.559 7.792,0.77 7.792,9.786 0,7.039 0.244,8.08 2.223,9.465 3.011,2.109 8.091,1.973 10.122,-0.272 1.212,-1.339 1.655,-3.724 1.655,-8.918 0,-10.257 -0.003,-10.253 8.241,-10.253 3.865,0 8.793,-0.529 10.952,-1.176 4.424,-1.325 12.187,-7.707 14.219,-11.689 2.6,-5.094 3.644,-12.774 2.478,-18.214 -1.673,-7.799 -6.006,-11.88 -16.39,-15.436 l -2,-0.685 2,-0.796 c 2.826,-1.125 7.166,-5.965 8.523,-9.504 1.626,-4.243 1.412,-13.345 -0.415,-17.647 -3.09,-7.276 -12.082,-12.834 -20.787,-12.847 -5.585,-0.009 -6.821,-1.913 -6.821,-10.505 0,-6.756 -0.215,-7.525 -2.635,-9.428 -3.22,-2.533 -6.458,-2.646 -9.237,-0.323 -1.775,1.484 -2.134,3.042 -2.36,10.25 l -0.268,8.5 -3.828,0.945 c -5.973,1.476 -7.075,0.201 -7.731,-8.936 -0.495,-6.898 -0.87,-8.051 -3.305,-10.146 -3.354,-2.884 -5.584,-2.978 -8.895,-0.374 m 15.105,44.76 c 0.191,5.363 0.566,9.976 0.834,10.251 0.268,0.275 5.464,0.428 11.546,0.339 9.19,-0.133 11.498,-0.486 13.666,-2.09 4.102,-3.034 5.551,-6.828 4.256,-11.149 -1.769,-5.905 -4.934,-7.1 -18.802,-7.101 H 481.5 l 0.346,9.75 m -0.505,36.327 c 0.262,5.541 0.706,10.305 0.986,10.585 0.28,0.28 7.184,0.551 15.341,0.602 16.201,0.101 18.336,-0.436 20.822,-5.243 1.911,-3.695 1.909,-6.348 -0.007,-10.053 C 515.816,465.811 512.76,465 495.981,465 h -15.117 l 0.477,10.076 m -46.907,76.68 C 434.262,574.807 426.785,587.405 398.088,613 386.419,623.408 384,625.925 384,627.659 c 0,0.828 1.166,4.956 2.591,9.173 3.131,9.265 12.807,36.727 15.387,43.668 1.021,2.75 3.522,9.618 5.555,15.262 4.316,11.976 6.079,14.531 11.772,17.049 3.871,1.712 8.106,5.655 11.914,11.092 1.526,2.178 1.599,2.183 8.41,0.597 18.195,-4.235 58.069,-10.5 66.831,-10.5 4.654,0 5.19,-1.44 1.96,-5.27 -5.067,-6.01 -6.617,-12.675 -4.496,-19.331 1.02,-3.199 3.961,-13.616 6.467,-22.899 0.89,-3.3 2.99,-11.85 4.667,-19 1.676,-7.15 4.366,-18.625 5.978,-25.5 7.327,-31.253 11.949,-51.971 12.634,-56.629 l 0.46,-3.128 -20.815,0.063 C 492.24,562.37 486.36,561.751 471,557.851 c -9.347,-2.374 -16.049,-4.954 -27.291,-10.508 -4.835,-2.389 -8.885,-4.34 -9,-4.337 -0.115,0.004 -0.238,3.941 -0.275,8.75 M 567.18,571 c -2.718,5.804 -22.916,56.116 -28.704,71.5 -9.325,24.784 -14.04,37.892 -15.599,43.364 l -1.813,6.363 6.314,5.882 c 3.473,3.235 7.127,7.684 8.12,9.887 l 1.806,4.004 8.098,0.002 c 17.843,0.003 47.294,2.317 71.763,5.638 6.416,0.871 12.149,1.42 12.739,1.222 0.591,-0.199 -0.249,-1.776 -1.866,-3.505 -1.874,-2.004 -3.886,-6.17 -5.554,-11.5 -3.256,-10.403 -18.124,-54.589 -23.339,-69.357 -9.451,-26.766 -23.952,-62.688 -27.283,-67.59 l -1.638,-2.41 -3.044,6.5 m -212.55,48.523 c -0.34,0.884 -0.155,8.215 0.41,16.292 2.282,32.627 2.91,41.364 4.078,56.685 l 1.219,16 8.212,8 c 4.517,4.4 8.887,9.35 9.711,11 2.329,4.662 3.078,9.388 1.742,10.997 -1.608,1.938 -0.232,3.799 2.365,3.198 3.172,-0.734 24.813,-8.541 25.454,-9.183 0.305,-0.305 -1.36,-2.504 -3.699,-4.888 -4.256,-4.337 -4.567,-4.991 -16.909,-35.624 -1.661,-4.125 -4.168,-10.425 -5.571,-14 -2.529,-6.449 -12.024,-29.662 -13.701,-33.5 -0.481,-1.1 -3.027,-7.363 -5.658,-13.917 -4.71,-11.734 -6.437,-14.23 -7.653,-11.06" />
    <ellipse
       ry="83.151482"
       rx="64.742737"
       cy="460.35635"
       cx="490.75381"
       id="path4524"
       style="fill:#3f2406;fill-opacity:1;stroke:none;stroke-width:2.23553157;stroke-linecap:round;stroke-linejoin:round" />
    <path
       inkscape:connector-curvature="0"
       id="path4549"
       d="m 668.42838,727.94735 a 181.96611,56.568329 0 0 0 -9.4571,-2.74023 181.96611,56.568329 0 0 0 -14.4804,-3.42188 181.96611,56.568329 0 0 0 -15.5059,-2.95508 181.96611,56.568329 0 0 0 -16.3789,-2.45898 181.96611,56.568329 0 0 0 -17.0859,-1.93945 181.96611,56.568329 0 0 0 -17.6231,-1.39844 181.96611,56.568329 0 0 0 -17.9844,-0.8457 181.96611,56.568329 0 0 0 -18.1679,-0.28125 181.96611,56.568329 0 0 0 -12.8711,0.14062 181.96611,56.568329 0 0 0 -18.0567,0.68164 181.96611,56.568329 0 0 0 -17.748,1.23828 181.96611,56.568329 0 0 0 -17.2598,1.78321 181.96611,56.568329 0 0 0 -16.6035,2.31054 181.96611,56.568329 0 0 0 -15.7773,2.8125 181.96611,56.568329 0 0 0 -14.795,3.28907 181.96611,56.568329 0 0 0 -13.664,3.73242 181.96611,56.568329 0 0 0 -12.3984,4.13672 181.96611,56.568329 0 0 0 -11.0079,4.50195 181.96611,56.568329 0 0 0 -9.5078,4.82031 181.96611,56.568329 0 0 0 -2.2363,1.43946 266.4805,266.4805 0 0 0 132.9102,35.78124 266.4805,266.4805 0 0 0 155.6992,-50.62695 z"
       style="fill:#3f2406;fill-opacity:1;stroke:none;stroke-width:1.85785091;stroke-linecap:round;stroke-linejoin:round" />
  </g>
  <g
     id="g4591"
     transform="matrix(0.64236755,0,0,0.64236755,390.76727,306.55368)"
     style="fill:#ffffff;fill-opacity:1">
    <g
       id="g4589"
       style="fill:#ffffff;fill-opacity:1">
      <path
         id="path4587"
         d="m 217.021,167.042 c 18.631,-9.483 30.288,-26.184 27.565,-54.007 C 240.919,75.012 208.06,62.262 166.58,58.631 L 166.572,5.89 h -32.139 l -0.009,51.354 c -8.456,0 -17.076,0.166 -25.657,0.338 L 108.76,5.897 76.65,5.894 76.644,58.622 c -6.959,0.142 -13.793,0.277 -20.466,0.277 v -0.156 l -44.33,-0.018 0.006,34.282 c 0,0 23.734,-0.446 23.343,-0.013 13.013,0.009 17.262,7.559 18.484,14.076 l 0.01,60.083 v 84.397 c -0.573,4.09 -2.984,10.625 -12.083,10.637 0.414,0.364 -23.379,-0.004 -23.379,-0.004 l -6.375,38.335 h 41.817 c 7.792,0.009 15.448,0.13 22.959,0.19 l 0.028,53.338 32.102,0.009 -0.009,-52.779 c 8.832,0.18 17.357,0.258 25.684,0.247 l -0.009,52.532 h 32.138 l 0.018,-53.249 c 54.022,-3.1 91.842,-16.697 96.544,-67.385 3.79,-40.809 -15.434,-59.025 -46.105,-66.379 z M 109.535,95.321 c 18.126,0 75.132,-5.767 75.14,32.064 -0.008,36.269 -56.996,32.032 -75.14,32.032 V 95.321 Z m -0.014,167.126 0.014,-70.672 c 21.778,-0.006 90.085,-6.261 90.094,35.32 0.009,39.876 -68.316,35.336 -90.108,35.352 z"
         inkscape:connector-curvature="0"
         style="fill:#ffffff;fill-opacity:1" />
    </g>
  </g>
  <g
     id="g887"
     transform="matrix(0.96374205,0,0,0.96374205,44.670205,18.374872)">
    <g
       transform="matrix(16.561352,0,0,16.561352,799.36684,277.44663)"
       id="g4629"
       style="fill:#3f2406;fill-opacity:1">
      <path
         sodipodi:nodetypes="cccccssccccccccsscccccccccccccccc"
         style="fill:#3f2406;fill-opacity:1"
         inkscape:connector-curvature="0"
         d="m 10.506,3.883 c 0.108745,4.706e-4 0.215026,0.032424 0.306,0.092 0.09139,0.062096 0.162923,0.1492501 0.206,0.251 l 1.776,4.138 c 0.03129,0.072562 0.04664,0.1509961 0.045,0.23 v 0.005 c 0,3.110665 -4.666,3.110665 -4.666,0 V 8.594 C 8.17136,8.514996 8.18671,8.436562 8.218,8.364 L 9.665,4.992 H 7.078 5.97 3.335 l 1.447,3.372 c 0.03129,0.072562 0.046636,0.1509961 0.045,0.23 v 0.005 c 0,3.110665 -4.666,3.110665 -4.666,0 V 8.594 C 0.159364,8.514996 0.1747102,8.436562 0.206,8.364 L 1.982,4.226 C 2.0245383,4.1241922 2.0962039,4.0372194 2.188,3.976 2.2786394,3.9155919 2.3850754,3.8832438 2.494,3.883 H 5.97 c 1.108,0 0,0 1.108,0 z M 3.677,8.6 2.494,5.843 1.312,8.599 Z m 8.012,0 L 10.506,5.844 9.323,8.6 Z"
         id="path4618" />
    </g>
    <path
       inkscape:connector-curvature="0"
       id="path4664"
       d="M 906.84539,343.22067 907.18586,267.299"
       style="fill:none;stroke:#3f2406;stroke-width:17.75467873;stroke-linecap:round;stroke-linejoin:miter;stroke-miterlimit:4;stroke-dasharray:none;stroke-opacity:1"
       sodipodi:nodetypes="cc" />
    <path
       sodipodi:nodetypes="cccc"
       inkscape:connector-curvature="0"
       id="path4698"
       d="m 906.70197,320.52016 28.7275,30.93234 -57.67558,-0.0449 z"
       style="fill:none;stroke:#3f2406;stroke-width:17.75467873;stroke-linecap:butt;stroke-linejoin:round;stroke-miterlimit:4;stroke-dasharray:none;stroke-opacity:1" />
  </g>
</svg>
